<?xml version="1.0" encoding="UTF-8"?>
<svg xmlns="http://www.w3.org/2000/svg" xmlns:xlink="http://www.w3.org/1999/xlink"
     width="2600" height="980" viewBox="0 0 2600 980">
<defs>
</defs>
<style>@media (prefers-color-scheme: dark) {
    .nf-metro-section-label { fill: #d0d0d0; }
    .nf-metro-section-num-circle { fill: #777777; }
    .nf-metro-title { fill: #ffffff; }
}
</style>
<text x="60.0" y="30.0" font-size="26.0" fill="#111111" font-family="'Helvetica Neue', Helvetica, Arial, sans-serif" font-weight="bold" class="nf-metro-title">Fungal GEM MVP Pipeline</text>
<rect x="30.0" y="205.0" width="176.0" height="70.0" rx="8" ry="8" fill="#ededed" stroke="#e6e6e6" stroke-width="1.0" />
<circle cx="41.0" cy="190.0" r="11" fill="#333333" class="nf-metro-section-num-circle" />
<text x="41.0" y="190.0" font-size="12" fill="#ffffff" font-family="'Helvetica Neue', Helvetica, Arial, sans-serif" font-weight="bold" text-anchor="middle" dy="0.3em">1</text>
<text x="57.0" y="190.0" font-size="17.0" fill="#666666" font-family="'Helvetica Neue', Helvetica, Arial, sans-serif" font-weight="bold" dy="0.3em" class="nf-metro-section-label">Input</text>
<rect x="256.0" y="205.0" width="185.0" height="70.0" rx="8" ry="8" fill="#ededed" stroke="#e6e6e6" stroke-width="1.0" />
<circle cx="267.0" cy="190.0" r="11" fill="#333333" class="nf-metro-section-num-circle" />
<text x="267.0" y="190.0" font-size="12" fill="#ffffff" font-family="'Helvetica Neue', Helvetica, Arial, sans-serif" font-weight="bold" text-anchor="middle" dy="0.3em">2</text>
<text x="283.0" y="190.0" font-size="17.0" fill="#666666" font-family="'Helvetica Neue', Helvetica, Arial, sans-serif" font-weight="bold" dy="0.3em" class="nf-metro-section-label">ModelSEED</text>
<rect x="491.0" y="205.0" width="239.0" height="70.0" rx="8" ry="8" fill="#ededed" stroke="#e6e6e6" stroke-width="1.0" />
<circle cx="502.0" cy="190.0" r="11" fill="#333333" class="nf-metro-section-num-circle" />
<text x="502.0" y="190.0" font-size="12" fill="#ffffff" font-family="'Helvetica Neue', Helvetica, Arial, sans-serif" font-weight="bold" text-anchor="middle" dy="0.3em">3</text>
<text x="518.0" y="190.0" font-size="17.0" fill="#666666" font-family="'Helvetica Neue', Helvetica, Arial, sans-serif" font-weight="bold" dy="0.3em" class="nf-metro-section-label">Template</text>
<rect x="780.0" y="205.0" width="190.5" height="70.0" rx="8" ry="8" fill="#ededed" stroke="#e6e6e6" stroke-width="1.0" />
<circle cx="791.0" cy="190.0" r="11" fill="#333333" class="nf-metro-section-num-circle" />
<text x="791.0" y="190.0" font-size="12" fill="#ffffff" font-family="'Helvetica Neue', Helvetica, Arial, sans-serif" font-weight="bold" text-anchor="middle" dy="0.3em">4</text>
<text x="807.0" y="190.0" font-size="17.0" fill="#666666" font-family="'Helvetica Neue', Helvetica, Arial, sans-serif" font-weight="bold" dy="0.3em" class="nf-metro-section-label">Draft GEM</text>
<rect x="1020.5" y="205.0" width="246.0" height="70.0" rx="8" ry="8" fill="#ededed" stroke="#e6e6e6" stroke-width="1.0" />
<circle cx="1031.5" cy="190.0" r="11" fill="#333333" class="nf-metro-section-num-circle" />
<text x="1031.5" y="190.0" font-size="12" fill="#ffffff" font-family="'Helvetica Neue', Helvetica, Arial, sans-serif" font-weight="bold" text-anchor="middle" dy="0.3em">5</text>
<text x="1047.5" y="190.0" font-size="17.0" fill="#666666" font-family="'Helvetica Neue', Helvetica, Arial, sans-serif" font-weight="bold" dy="0.3em" class="nf-metro-section-label">Export + COBRA</text>
<rect x="1346.5" y="205.0" width="170.0" height="70.0" rx="8" ry="8" fill="#ededed" stroke="#e6e6e6" stroke-width="1.0" />
<circle cx="1357.5" cy="190.0" r="11" fill="#333333" class="nf-metro-section-num-circle" />
<text x="1357.5" y="190.0" font-size="12" fill="#ffffff" font-family="'Helvetica Neue', Helvetica, Arial, sans-serif" font-weight="bold" text-anchor="middle" dy="0.3em">6</text>
<text x="1373.5" y="190.0" font-size="17.0" fill="#666666" font-family="'Helvetica Neue', Helvetica, Arial, sans-serif" font-weight="bold" dy="0.3em" class="nf-metro-section-label">Analysis Hub</text>
<rect x="1586.5" y="85.0" width="243.5" height="70.0" rx="8" ry="8" fill="#ededed" stroke="#e6e6e6" stroke-width="1.0" />
<circle cx="1597.5" cy="70.0" r="11" fill="#333333" class="nf-metro-section-num-circle" />
<text x="1597.5" y="70.0" font-size="12" fill="#ffffff" font-family="'Helvetica Neue', Helvetica, Arial, sans-serif" font-weight="bold" text-anchor="middle" dy="0.3em">7</text>
<text x="1613.5" y="70.0" font-size="17.0" fill="#666666" font-family="'Helvetica Neue', Helvetica, Arial, sans-serif" font-weight="bold" dy="0.3em" class="nf-metro-section-label">Theoretical Upper Bound</text>
<rect x="1586.5" y="205.0" width="189.5" height="70.0" rx="8" ry="8" fill="#ededed" stroke="#e6e6e6" stroke-width="1.0" />
<circle cx="1597.5" cy="190.0" r="11" fill="#333333" class="nf-metro-section-num-circle" />
<text x="1597.5" y="190.0" font-size="12" fill="#ffffff" font-family="'Helvetica Neue', Helvetica, Arial, sans-serif" font-weight="bold" text-anchor="middle" dy="0.3em">8</text>
<text x="1613.5" y="190.0" font-size="17.0" fill="#666666" font-family="'Helvetica Neue', Helvetica, Arial, sans-serif" font-weight="bold" dy="0.3em" class="nf-metro-section-label">Preset Conditions</text>
<rect x="1586.5" y="325.0" width="171.5" height="77.0" rx="8" ry="8" fill="#ededed" stroke="#e6e6e6" stroke-width="1.0" />
<circle cx="1597.5" cy="310.0" r="11" fill="#333333" class="nf-metro-section-num-circle" />
<text x="1597.5" y="310.0" font-size="12" fill="#ffffff" font-family="'Helvetica Neue', Helvetica, Arial, sans-serif" font-weight="bold" text-anchor="middle" dy="0.3em">9</text>
<text x="1613.5" y="310.0" font-size="17.0" fill="#666666" font-family="'Helvetica Neue', Helvetica, Arial, sans-serif" font-weight="bold" dy="0.3em" class="nf-metro-section-label">Custom Condition</text>
<rect x="1586.5" y="445.0" width="225.5" height="80.0" rx="8" ry="8" fill="#ededed" stroke="#e6e6e6" stroke-width="1.0" />
<circle cx="1597.5" cy="430.0" r="11" fill="#333333" class="nf-metro-section-num-circle" />
<text x="1597.5" y="430.0" font-size="12" fill="#ffffff" font-family="'Helvetica Neue', Helvetica, Arial, sans-serif" font-weight="bold" text-anchor="middle" dy="0.3em">10</text>
<text x="1613.5" y="430.0" font-size="17.0" fill="#666666" font-family="'Helvetica Neue', Helvetica, Arial, sans-serif" font-weight="bold" dy="0.3em" class="nf-metro-section-label">Validation</text>
<rect x="1910.0" y="205.0" width="143.0" height="77.0" rx="8" ry="8" fill="#ededed" stroke="#e6e6e6" stroke-width="1.0" />
<circle cx="1921.0" cy="190.0" r="11" fill="#333333" class="nf-metro-section-num-circle" />
<text x="1921.0" y="190.0" font-size="12" fill="#ffffff" font-family="'Helvetica Neue', Helvetica, Arial, sans-serif" font-weight="bold" text-anchor="middle" dy="0.3em">11</text>
<text x="1937.0" y="190.0" font-size="17.0" fill="#666666" font-family="'Helvetica Neue', Helvetica, Arial, sans-serif" font-weight="bold" dy="0.3em" class="nf-metro-section-label">Comparison</text>
<path d="M1658.0,492.0 L1718.0,492.0" stroke="#6b7280" stroke-width="4.0" stroke-linecap="round" />
<path d="M1586.5,492.0 L1658.0,492.0" stroke="#6b7280" stroke-width="4.0" stroke-linecap="round" />
<path d="M1644.5,369.0 L1704.5,369.0" stroke="#e15759" stroke-width="4.0" stroke-linecap="round" />
<path d="M1586.5,369.0 L1644.5,369.0" stroke="#e15759" stroke-width="4.0" stroke-linecap="round" />
<path d="M1704.5,369.0 L1758.0,369.0" stroke="#e15759" stroke-width="4.0" stroke-linecap="round" />
<path d="M1758.0,369.0 L1860.0,369.0 Q1870.0,369.0,1870.0,359.0 L1870.0,259.0 Q1870.0,249.0,1880.0,249.0 L1910.0,249.0" stroke="#e15759" stroke-width="4.0" fill="none" stroke-linecap="round" stroke-linejoin="round" />
<path d="M1431.5,252.0 L1516.5,252.0" stroke="#6b7280" stroke-width="4.0" stroke-linecap="round" />
<path d="M1516.5,252.0 L1526.5,252.0" stroke="#6b7280" stroke-width="4.0" stroke-linecap="round" />
<path d="M1526.5,252.0 L1531.0,252.0 Q1541.0,252.0,1541.0,262.0 L1541.0,479.0 Q1541.0,492.0,1554.0,492.0 L1586.5,492.0" stroke="#6b7280" stroke-width="4.0" fill="none" stroke-linecap="round" stroke-linejoin="round" />
<path d="M1431.5,249.0 L1516.5,249.0" stroke="#e15759" stroke-width="4.0" stroke-linecap="round" />
<path d="M1910.0,249.0 L1981.5,249.0" stroke="#e15759" stroke-width="4.0" stroke-linecap="round" />
<path d="M1516.5,249.0 L1526.5,249.0" stroke="#e15759" stroke-width="4.0" stroke-linecap="round" />
<path d="M1526.5,249.0 L1531.0,249.0 Q1544.0,249.0,1544.0,262.0 L1544.0,359.0 Q1544.0,369.0,1554.0,369.0 L1586.5,369.0" stroke="#e15759" stroke-width="4.0" fill="none" stroke-linecap="round" stroke-linejoin="round" />
<path d="M1662.5,246.0 L1722.5,246.0" stroke="#f59e0b" stroke-width="4.0" stroke-linecap="round" />
<path d="M1431.5,246.0 L1516.5,246.0" stroke="#f59e0b" stroke-width="4.0" stroke-linecap="round" />
<path d="M1586.5,246.0 L1662.5,246.0" stroke="#f59e0b" stroke-width="4.0" stroke-linecap="round" />
<path d="M1722.5,246.0 L1776.0,246.0" stroke="#f59e0b" stroke-width="4.0" stroke-linecap="round" />
<path d="M1910.0,246.0 L1981.5,246.0" stroke="#f59e0b" stroke-width="4.0" stroke-linecap="round" />
<path d="M1516.5,246.0 L1526.5,246.0" stroke="#f59e0b" stroke-width="4.0" stroke-linecap="round" />
<path d="M1526.5,246.0 L1586.5,246.0" stroke="#f59e0b" stroke-width="4.0" stroke-linecap="round" />
<path d="M1776.0,246.0 L1910.0,246.0" stroke="#f59e0b" stroke-width="4.0" stroke-linecap="round" />
<path d="M1431.5,243.0 L1516.5,243.0" stroke="#3b82f6" stroke-width="4.0" stroke-linecap="round" />
<path d="M1910.0,243.0 L1981.5,243.0" stroke="#3b82f6" stroke-width="4.0" stroke-linecap="round" />
<path d="M1516.5,243.0 L1526.5,243.0" stroke="#3b82f6" stroke-width="4.0" stroke-linecap="round" />
<path d="M1526.5,243.0 L1529.5,243.0 Q1539.5,243.0,1539.5,233.0 L1539.5,133.0 Q1539.5,123.0,1549.5,123.0 L1586.5,123.0" stroke="#3b82f6" stroke-width="4.0" fill="none" stroke-linecap="round" stroke-linejoin="round" />
<path d="M92.5,240.0 L152.5,240.0" stroke="#2c9f73" stroke-width="4.0" stroke-linecap="round" />
<path d="M318.5,240.0 L378.5,240.0" stroke="#2c9f73" stroke-width="4.0" stroke-linecap="round" />
<path d="M562.5,240.0 L622.5,240.0" stroke="#2c9f73" stroke-width="4.0" stroke-linecap="round" />
<path d="M860.5,240.0 L920.5,240.0" stroke="#2c9f73" stroke-width="4.0" stroke-linecap="round" />
<path d="M1070.5,240.0 L1130.5,240.0" stroke="#2c9f73" stroke-width="4.0" stroke-linecap="round" />
<path d="M1130.5,240.0 L1190.5,240.0" stroke="#2c9f73" stroke-width="4.0" stroke-linecap="round" />
<path d="M152.5,240.0 L206.0,240.0" stroke="#2c9f73" stroke-width="4.0" stroke-linecap="round" />
<path d="M441.0,240.0 L318.5,240.0" stroke="#2c9f73" stroke-width="4.0" stroke-linecap="round" />
<path d="M378.5,240.0 L441.0,240.0" stroke="#2c9f73" stroke-width="4.0" stroke-linecap="round" />
<path d="M730.0,240.0 L562.5,240.0" stroke="#2c9f73" stroke-width="4.0" stroke-linecap="round" />
<path d="M622.5,240.0 L730.0,240.0" stroke="#2c9f73" stroke-width="4.0" stroke-linecap="round" />
<path d="M970.5,240.0 L860.5,240.0" stroke="#2c9f73" stroke-width="4.0" stroke-linecap="round" />
<path d="M920.5,240.0 L970.5,240.0" stroke="#2c9f73" stroke-width="4.0" stroke-linecap="round" />
<path d="M1266.5,240.0 L1070.5,240.0" stroke="#2c9f73" stroke-width="4.0" stroke-linecap="round" />
<path d="M1190.5,240.0 L1266.5,240.0" stroke="#2c9f73" stroke-width="4.0" stroke-linecap="round" />
<path d="M1346.5,240.0 L1431.5,240.0" stroke="#2c9f73" stroke-width="4.0" stroke-linecap="round" />
<path d="M206.0,240.0 L441.0,240.0" stroke="#2c9f73" stroke-width="4.0" stroke-linecap="round" />
<path d="M441.0,240.0 L730.0,240.0" stroke="#2c9f73" stroke-width="4.0" stroke-linecap="round" />
<path d="M730.0,240.0 L970.5,240.0" stroke="#2c9f73" stroke-width="4.0" stroke-linecap="round" />
<path d="M970.5,240.0 L1266.5,240.0" stroke="#2c9f73" stroke-width="4.0" stroke-linecap="round" />
<path d="M1266.5,240.0 L1346.5,240.0" stroke="#2c9f73" stroke-width="4.0" stroke-linecap="round" />
<path d="M1694.0,123.0 L1754.0,123.0" stroke="#3b82f6" stroke-width="4.0" stroke-linecap="round" />
<path d="M1586.5,123.0 L1694.0,123.0" stroke="#3b82f6" stroke-width="4.0" stroke-linecap="round" />
<path d="M1754.0,123.0 L1830.0,123.0" stroke="#3b82f6" stroke-width="4.0" stroke-linecap="round" />
<path d="M1830.0,123.0 L1860.0,123.0 Q1870.0,123.0,1870.0,133.0 L1870.0,233.0 Q1870.0,243.0,1880.0,243.0 L1910.0,243.0" stroke="#3b82f6" stroke-width="4.0" fill="none" stroke-linecap="round" stroke-linejoin="round" />
<rect x="86.5" y="234.0" width="12.0" height="12.0" rx="6.0" ry="6.0" fill="#ffffff" stroke="#333333" stroke-width="2.0" />
<rect x="146.5" y="234.0" width="12.0" height="12.0" rx="6.0" ry="6.0" fill="#ffffff" stroke="#333333" stroke-width="2.0" />
<rect x="312.5" y="234.0" width="12.0" height="12.0" rx="6.0" ry="6.0" fill="#ffffff" stroke="#333333" stroke-width="2.0" />
<rect x="372.5" y="234.0" width="12.0" height="12.0" rx="6.0" ry="6.0" fill="#ffffff" stroke="#333333" stroke-width="2.0" />
<rect x="556.5" y="234.0" width="12.0" height="12.0" rx="6.0" ry="6.0" fill="#ffffff" stroke="#333333" stroke-width="2.0" />
<rect x="616.5" y="234.0" width="12.0" height="12.0" rx="6.0" ry="6.0" fill="#ffffff" stroke="#333333" stroke-width="2.0" />
<rect x="854.5" y="234.0" width="12.0" height="12.0" rx="6.0" ry="6.0" fill="#ffffff" stroke="#333333" stroke-width="2.0" />
<rect x="914.5" y="234.0" width="12.0" height="12.0" rx="6.0" ry="6.0" fill="#ffffff" stroke="#333333" stroke-width="2.0" />
<rect x="1064.5" y="234.0" width="12.0" height="12.0" rx="6.0" ry="6.0" fill="#ffffff" stroke="#333333" stroke-width="2.0" />
<rect x="1124.5" y="234.0" width="12.0" height="12.0" rx="6.0" ry="6.0" fill="#ffffff" stroke="#333333" stroke-width="2.0" />
<rect x="1184.5" y="234.0" width="12.0" height="12.0" rx="6.0" ry="6.0" fill="#ffffff" stroke="#333333" stroke-width="2.0" />
<rect x="1425.5" y="234.0" width="12.0" height="24.0" rx="6.0" ry="6.0" fill="#ffffff" stroke="#333333" stroke-width="2.0" />
<rect x="1688.0" y="117.0" width="12.0" height="12.0" rx="6.0" ry="6.0" fill="#ffffff" stroke="#333333" stroke-width="2.0" />
<rect x="1748.0" y="117.0" width="12.0" height="12.0" rx="6.0" ry="6.0" fill="#ffffff" stroke="#333333" stroke-width="2.0" />
<rect x="1656.5" y="240.0" width="12.0" height="12.0" rx="6.0" ry="6.0" fill="#ffffff" stroke="#333333" stroke-width="2.0" />
<rect x="1716.5" y="240.0" width="12.0" height="12.0" rx="6.0" ry="6.0" fill="#ffffff" stroke="#333333" stroke-width="2.0" />
<rect x="1638.5" y="363.0" width="12.0" height="12.0" rx="6.0" ry="6.0" fill="#ffffff" stroke="#333333" stroke-width="2.0" />
<rect x="1698.5" y="363.0" width="12.0" height="12.0" rx="6.0" ry="6.0" fill="#ffffff" stroke="#333333" stroke-width="2.0" />
<rect x="1652.0" y="486.0" width="12.0" height="12.0" rx="6.0" ry="6.0" fill="#ffffff" stroke="#333333" stroke-width="2.0" />
<rect x="1712.0" y="486.0" width="12.0" height="12.0" rx="6.0" ry="6.0" fill="#ffffff" stroke="#333333" stroke-width="2.0" />
<rect x="1975.5" y="237.0" width="12.0" height="18.0" rx="6.0" ry="6.0" fill="#ffffff" stroke="#333333" stroke-width="2.0" />
<text x="92.5" y="251.0" font-size="14.0" fill="#333333" font-family="'Helvetica Neue', Helvetica, Arial, sans-serif" font-weight="bold" text-anchor="middle" dominant-baseline="hanging">Protein FASTA</text>
<text x="318.5" y="251.0" font-size="14.0" fill="#333333" font-family="'Helvetica Neue', Helvetica, Arial, sans-serif" font-weight="bold" text-anchor="middle" dominant-baseline="hanging">Load MSGenome</text>
<text x="562.5" y="251.0" font-size="14.0" fill="#333333" font-family="'Helvetica Neue', Helvetica, Arial, sans-serif" font-weight="bold" text-anchor="middle" dominant-baseline="hanging">Select template</text>
<text x="860.5" y="251.0" font-size="14.0" fill="#333333" font-family="'Helvetica Neue', Helvetica, Arial, sans-serif" font-weight="bold" text-anchor="middle" dominant-baseline="hanging">Reconstruct model</text>
<text x="1070.5" y="251.0" font-size="14.0" fill="#333333" font-family="'Helvetica Neue', Helvetica, Arial, sans-serif" font-weight="bold" text-anchor="middle" dominant-baseline="hanging">Gapfill</text>
<text x="1694.0" y="134.0" font-size="14.0" fill="#333333" font-family="'Helvetica Neue', Helvetica, Arial, sans-serif" font-weight="bold" text-anchor="middle" dominant-baseline="hanging">Theoretical Upper Bound</text>
<text x="1662.5" y="257.0" font-size="14.0" fill="#333333" font-family="'Helvetica Neue', Helvetica, Arial, sans-serif" font-weight="bold" text-anchor="middle" dominant-baseline="hanging">Preset benchmark</text>
<text x="1644.5" y="380.0" font-size="14.0" fill="#333333" font-family="'Helvetica Neue', Helvetica, Arial, sans-serif" font-weight="bold" text-anchor="middle" dominant-baseline="hanging">Custom input</text>
<text x="1658.0" y="481.0" font-size="14.0" fill="#333333" font-family="'Helvetica Neue', Helvetica, Arial, sans-serif" font-weight="bold" text-anchor="middle" dominant-baseline="auto">Validation mode</text>
<text x="1431.5" y="229.0" font-size="14.0" fill="#333333" font-family="'Helvetica Neue', Helvetica, Arial, sans-serif" font-weight="bold" text-anchor="middle" dominant-baseline="auto">Pick analysis mode</text>
<text x="1981.5" y="260.0" font-size="14.0" fill="#333333" font-family="'Helvetica Neue', Helvetica, Arial, sans-serif" font-weight="bold" text-anchor="middle" dominant-baseline="hanging">Comparison plot</text>
<text x="152.5" y="226.0" font-size="14.0" fill="#333333" font-family="'Helvetica Neue', Helvetica, Arial, sans-serif" font-weight="bold" text-anchor="middle" dominant-baseline="auto">Check input</text>
<text x="378.5" y="226.0" font-size="14.0" fill="#333333" font-family="'Helvetica Neue', Helvetica, Arial, sans-serif" font-weight="bold" text-anchor="middle" dominant-baseline="auto">Optional RAST</text>
<text x="622.5" y="226.0" font-size="14.0" fill="#333333" font-family="'Helvetica Neue', Helvetica, Arial, sans-serif" font-weight="bold" text-anchor="middle" dominant-baseline="auto">Core or fungal scaffold</text>
<text x="920.5" y="226.0" font-size="14.0" fill="#333333" font-family="'Helvetica Neue', Helvetica, Arial, sans-serif" font-weight="bold" text-anchor="middle" dominant-baseline="auto">Draft GEM</text>
<text x="1130.5" y="226.0" font-size="14.0" fill="#333333" font-family="'Helvetica Neue', Helvetica, Arial, sans-serif" font-weight="bold" text-anchor="middle" dominant-baseline="auto">Export</text>
<text x="1754.0" y="109.0" font-size="14.0" fill="#333333" font-family="'Helvetica Neue', Helvetica, Arial, sans-serif" font-weight="bold" text-anchor="middle" dominant-baseline="auto">Theoretical plot</text>
<text x="1722.5" y="232.0" font-size="14.0" fill="#333333" font-family="'Helvetica Neue', Helvetica, Arial, sans-serif" font-weight="bold" text-anchor="middle" dominant-baseline="auto">Preset plot</text>
<text x="1704.5" y="355.0" font-size="14.0" fill="#333333" font-family="'Helvetica Neue', Helvetica, Arial, sans-serif" font-weight="bold" text-anchor="middle" dominant-baseline="auto">Custom plot</text>
<text x="1718.0" y="503.0" font-size="14.0" fill="#333333" font-family="'Helvetica Neue', Helvetica, Arial, sans-serif" font-weight="bold" text-anchor="middle" dominant-baseline="hanging">Validation dashboard</text>
<text x="1190.5" y="251.0" font-size="14.0" fill="#333333" font-family="'Helvetica Neue', Helvetica, Arial, sans-serif" font-weight="bold" text-anchor="middle" dominant-baseline="hanging">COBRA inspection</text>
<rect x="30.0" y="555.0" width="262.4" height="144.0" rx="6" ry="6" fill="rgba(255, 255, 255, 0.8)" />
<path d="M42.0,579.0 L66.0,579.0" stroke="#2c9f73" stroke-width="4.0" stroke-linecap="round" />
<text x="78.0" y="579.0" font-size="16.0" fill="#333333" font-family="'Helvetica Neue', Helvetica, Arial, sans-serif" dy="0.3em">Draft Build</text>
<path d="M42.0,603.0 L66.0,603.0" stroke="#3b82f6" stroke-width="4.0" stroke-linecap="round" />
<text x="78.0" y="603.0" font-size="16.0" fill="#333333" font-family="'Helvetica Neue', Helvetica, Arial, sans-serif" dy="0.3em">Theoretical Upper Bound</text>
<path d="M42.0,627.0 L66.0,627.0" stroke="#f59e0b" stroke-width="4.0" stroke-linecap="round" />
<text x="78.0" y="627.0" font-size="16.0" fill="#333333" font-family="'Helvetica Neue', Helvetica, Arial, sans-serif" dy="0.3em">Preset Conditions</text>
<path d="M42.0,651.0 L66.0,651.0" stroke="#e15759" stroke-width="4.0" stroke-linecap="round" />
<text x="78.0" y="651.0" font-size="16.0" fill="#333333" font-family="'Helvetica Neue', Helvetica, Arial, sans-serif" dy="0.3em">Custom Condition</text>
<path d="M42.0,675.0 L66.0,675.0" stroke="#6b7280" stroke-width="4.0" stroke-linecap="round" />
<text x="78.0" y="675.0" font-size="16.0" fill="#333333" font-family="'Helvetica Neue', Helvetica, Arial, sans-serif" dy="0.3em">Validation</text>
<text x="2570.0" y="972.0" font-size="8" fill="rgba(150, 150, 150, 0.6)" font-family="'Helvetica Neue', Helvetica, Arial, sans-serif" text-anchor="end">created with nf-metro v0.6.1</text>
</svg>
